<?xml version="1.0" encoding="utf-8"?>
<!-- Generator: Adobe Illustrator 19.1.0, SVG Export Plug-In . SVG Version: 6.00 Build 0)  -->
<svg version="1.0" id="Calque_1" xmlns="http://www.w3.org/2000/svg" xmlns:xlink="http://www.w3.org/1999/xlink" x="0px" y="0px"
	 viewBox="0 0 133.2 119.1" enable-background="new 0 0 133.2 119.1" xml:space="preserve">
<path fill="#1D9DD9" d="M112,115.4H21.2c-5.8,0-10.5-4.7-10.5-10.5V14.2c0-5.8,4.7-10.5,10.5-10.5H112c5.8,0,10.5,4.7,10.5,10.5V105
	C122.5,110.7,117.8,115.4,112,115.4z"/>
<g>
	<defs>
		<rect id="SVGID_1_" x="26.1" y="24.1" width="81" height="70.9"/>
	</defs>
	<clipPath id="SVGID_2_">
		<use xlink:href="#SVGID_1_"  overflow="visible"/>
	</clipPath>
	<path clip-path="url(#SVGID_2_)" fill="#FFFFFF" d="M33.6,90.6c0-1.1-0.6-2-2.4-2h-2.4v4.2c0.5,0,1.2,0,1.6,0c2.5,0,3.2-0.6,3.2-2
		V90.6z M33.5,84.5c0-1.3-0.9-1.8-3.3-1.8c-0.5,0-1,0-1.4,0v3.9h2.4c1.8,0,2.3-0.8,2.3-1.8V84.5z M30.3,95c-1.6,0-2.7-0.1-3.3-0.2
		c-0.6-0.1-0.9-0.3-0.9-1V81.7c0-0.7,0.2-0.9,0.9-1c0.5-0.1,1.7-0.2,3.2-0.2c3.5,0,5.9,1,5.9,3.9v0.4c0,1.3-0.6,2.4-1.8,2.9
		c1.2,0.5,1.9,1.5,1.9,2.9v0.3C36.2,93.9,33.9,95,30.3,95"/>
	<path clip-path="url(#SVGID_2_)" fill="#FFFFFF" d="M40.6,94.9h-1.8c-0.2,0-0.4-0.2-0.4-0.4V80.6c0-0.2,0.2-0.4,0.4-0.4h1.8
		c0.2,0,0.4,0.2,0.4,0.4v13.8C41,94.7,40.8,94.9,40.6,94.9"/>
	<path clip-path="url(#SVGID_2_)" fill="#FFFFFF" d="M51.9,94.9h-1.8c-0.2,0-0.4-0.2-0.4-0.4V94c-1,0.7-1.8,1-3,1
		c-1,0-1.8-0.2-2.4-0.8c-0.7-0.7-1-1.9-1-3.5v-6.3c0-0.2,0.2-0.4,0.4-0.4h1.8c0.2,0,0.4,0.2,0.4,0.4v6.3c0,1,0.1,1.5,0.4,1.8
		c0.3,0.2,0.6,0.3,1.2,0.3c0.7,0,1.6-0.5,2.2-0.8v-7.7c0-0.2,0.2-0.4,0.4-0.4h1.8c0.2,0,0.4,0.2,0.4,0.4v10
		C52.3,94.7,52.2,94.9,51.9,94.9"/>
	<path clip-path="url(#SVGID_2_)" fill="#FFFFFF" d="M61.1,88.5c0-1.5-0.8-2.4-2-2.4c-1.2,0-2.1,0.8-2.1,2.4v0.1L61.1,88.5
		L61.1,88.5z M63.3,90.3H57v0.1c0,1.1,0.5,2.4,2.3,2.4c1.4,0,2.7-0.1,3.5-0.2h0.1c0.2,0,0.3,0.1,0.3,0.3v1.3c0,0.3-0.1,0.4-0.4,0.5
		c-1.2,0.2-2,0.3-3.7,0.3c-1.9,0-4.6-1-4.6-4.8v-1.4c0-3,1.7-4.9,4.6-4.9c3,0,4.6,2,4.6,4.9v1.1C63.7,90.2,63.5,90.3,63.3,90.3"/>
	<path clip-path="url(#SVGID_2_)" fill="#FFFFFF" d="M69.7,89.9H66c-0.2,0-0.4-0.1-0.4-0.3v-1.2c0-0.2,0.2-0.4,0.4-0.4h3.8
		c0.2,0,0.4,0.2,0.4,0.4v1.2C70.1,89.8,69.9,89.9,69.7,89.9"/>
	<path clip-path="url(#SVGID_2_)" fill="#FFFFFF" d="M78.6,88.7c0-1.6-0.4-2.7-2.1-2.7c-0.5,0-1.3,0.1-1.8,0.1v6.7
		c0.4,0.1,1.2,0.1,1.8,0.1c1.7,0,2.1-1.2,2.1-2.7V88.7z M76.6,95c-1.2,0-2.7-0.2-3.9-0.5c-0.4-0.1-0.5-0.2-0.5-0.5V80.6
		c0-0.2,0.2-0.4,0.4-0.4h1.8c0.2,0,0.4,0.2,0.4,0.4V84c0.7-0.1,1.4-0.1,1.8-0.1c3.1,0,4.6,1.8,4.6,4.8v1.5
		C81.2,93.2,79.7,95,76.6,95"/>
	<path clip-path="url(#SVGID_2_)" fill="#FFFFFF" d="M85.5,94.9h-1.8c-0.2,0-0.4-0.2-0.4-0.4v-10c0-0.2,0.2-0.4,0.4-0.4h1.8
		c0.2,0,0.4,0.2,0.4,0.4v10C85.9,94.7,85.7,94.9,85.5,94.9 M85.5,82.6h-1.9c-0.2,0-0.4-0.2-0.4-0.4v-1.7c0-0.2,0.2-0.4,0.4-0.4h1.9
		c0.2,0,0.4,0.2,0.4,0.4v1.7C85.9,82.4,85.7,82.6,85.5,82.6"/>
	<path clip-path="url(#SVGID_2_)" fill="#FFFFFF" d="M96.8,94.9h-2.3c-0.2,0-0.4-0.2-0.6-0.4l-3-4.4v4.4c0,0.2-0.2,0.4-0.4,0.4h-1.8
		c-0.2,0-0.4-0.2-0.4-0.4V80.6c0-0.2,0.2-0.4,0.4-0.4h1.8c0.2,0,0.4,0.2,0.4,0.4v8l3.3-4.4c0.1-0.2,0.3-0.2,0.4-0.2h2.1
		c0.2,0,0.3,0.1,0.3,0.2c0,0.1,0,0.1-0.1,0.2l-3.9,4.7l3.9,5.3c0,0.1,0.1,0.1,0.1,0.2C97.1,94.8,96.9,94.9,96.8,94.9"/>
	<path clip-path="url(#SVGID_2_)" fill="#FFFFFF" d="M104.6,88.5c0-1.5-0.8-2.4-2-2.4c-1.2,0-2.1,0.8-2.1,2.4v0.1L104.6,88.5
		L104.6,88.5z M106.7,90.3h-6.3v0.1c0,1.1,0.5,2.4,2.3,2.4c1.4,0,2.7-0.1,3.5-0.2h0.1c0.2,0,0.3,0.1,0.3,0.3v1.3
		c0,0.3-0.1,0.4-0.4,0.5c-1.3,0.2-2,0.3-3.7,0.3c-1.9,0-4.6-1-4.6-4.8v-1.4c0-3,1.7-4.9,4.6-4.9c3,0,4.6,2,4.6,4.9v1.1
		C107.1,90.2,107,90.3,106.7,90.3"/>
	<path clip-path="url(#SVGID_2_)" fill="#FFFFFF" d="M91.3,74.1c-7.6,0-13.8-6.2-13.8-13.8c0-5.2,2.9-9.7,7.1-12.1l1.4,4.6l0,0
		c1.5,4.7,4.8,7.8,4.9,8l0.9-1c0,0-3.1-3-4.6-7.4l-1.5-4.8c1.7-0.7,3.6-1.2,5.5-1.2c7.6,0,13.8,6.2,13.8,13.8S98.9,74.1,91.3,74.1
		 M66.4,60.5c-0.3-0.4-0.6-0.8-1-1.1c0.9-0.1,1.9-0.3,2.9-0.8l-0.1,0.1C68.2,58.8,67.3,59.9,66.4,60.5 M34.6,43.1
		c-0.2-0.4-0.2-0.7-0.1-0.9c0.1-0.2,0.4-0.3,0.7-0.3c0,0,0.1,0,0.1,0l11.8,0.6l6.3,3.2l-1.2,1.4c-2.8-2.2-6.3-3.5-10.1-3.5
		c-2.3,0-4.5,0.5-6.5,1.3L34.6,43.1z M56.7,44l4,14.5l-2.2-0.1c-0.5-4-2.4-7.6-5.3-10.2L56.7,44z M45.4,57.4l1.5-1.8
		c1.6,0.5,5,1.5,8.7,1.8c0,0.2,0.1,0.5,0.1,0.7L45.4,57.4z M42.1,46.5c0.6,0,1.2,0,1.8,0.1c0.1,1.9,0.6,4.8,1.9,8.3l-2.1,2.5l-2-0.1
		c-0.1,0-0.2,0-0.3,0l-4.6-9.6C38.4,46.8,40.2,46.5,42.1,46.5 M42.1,74.1c-7.6,0-13.8-6.2-13.8-13.8c0-5.3,2.9-9.8,7.3-12.2l4.5,9.4
		c-1,0.5-1.7,1.4-1.8,2.5c-0.2,1.7,1.1,3.3,2.8,3.5l13.8,2.2C52.7,70.7,47.8,74.1,42.1,74.1 M95.5,45l0.2-0.7
		c-1.4-0.4-2.9-0.6-4.4-0.6c-2.2,0-4.4,0.4-6.3,1.3l-3.4-11.2l-1.2-4l2.1-1.8l0,0c0.1-0.1,1.1-1,1.1-2c0-0.5-0.2-0.9-0.5-1.2
		c-1.1-1.1-2.6-0.6-2.9-0.5l-4.1,0.9l-2.3,0.5l0.3,1.3l6.5-1.4c0.1,0,1.1-0.2,1.5,0.2c0.1,0.1,0.1,0.1,0.1,0.2c0,0.3-0.4,0.8-0.6,1
		l-2.8,2.3l1.5,4.9l0.9,3L69.7,56.3c-3.1,2.4-6.4,2-7.8,1.6l-4.9-17.6l-1-3.4c1.4-1.7,5.5-2.1,5.5-2.1s0-0.9-0.9-1.4
		c-0.9-0.5-2.2-0.3-4.2-0.1c-1.6,0.2-3-0.4-3.9-0.4c-0.8,0-2,0.1-2.5,1c-0.4,0.6-0.2,1.3-0.1,1.6c0.1,0.4,0.5,1.3,2.8,1.8
		c0.9,0.2,1.6,0.2,2.1,0.2l0.9,3.2l0.5,1.7l-1.9,2.3l-6.8-3.5l-0.1,0c0.2,0,0.4-0.1,0.4-0.3l1.3-4.3c0.1-0.2,0-0.5-0.1-0.6l-3.8-4
		c-0.1-0.1-0.4-0.3-0.6-0.3l-17.1-1c-0.2,0-0.3,0.1-0.3,0.3l1.4,8.9c0,0.2,0.2,0.4,0.4,0.4l5.7,0.3c-0.7,0.1-1.2,0.4-1.5,0.9
		c-0.4,0.6-0.4,1.4,0,2.2l0.9,2c-0.8,0.4-1.6,0.9-2.3,1.5c-2.8,2.2-4.9,5.2-5.9,8.6l0.7,0.2c-0.4,1.4-0.6,2.9-0.6,4.4
		c0,8.7,7.1,15.8,15.8,15.8c6.7,0,12.5-4.2,14.8-10.1l5.5,0.9c0.5,0.1,0.9,0,1.3-0.1l1.1,3.1l-1,0.2c-0.2,0-0.3,0.2-0.3,0.4l0.1,0.6
		c0,0.2,0.2,0.3,0.4,0.3l3.5-0.5c0.2,0,0.3-0.2,0.3-0.4L67.6,70c0-0.2-0.2-0.3-0.4-0.3L66,69.8l-1.2-3.4c1.2-0.6,2-1.8,2.2-3.2
		c0-0.1,0-0.2,0-0.3c0.7-0.2,1.6-0.7,2.4-1.6c1.3-1.7,10.9-16.3,13.1-19.7l1.2,4c-5.3,2.8-9,8.3-9,14.8c0,1.1,0.1,2.3,0.3,3.3
		l0.8-0.2c1.5,7.2,7.9,12.6,15.5,12.6c8.7,0,15.8-7.1,15.8-15.8C107.1,53,102.2,46.9,95.5,45"/>
	<path clip-path="url(#SVGID_2_)" fill="#FFFFFF" d="M85,42.3h0.7c0.2,0,0.4-0.2,0.4-0.4v-2.5c0-0.2-0.2-0.4-0.4-0.4H85
		c-0.2,0-0.4,0.2-0.4,0.4v2.5C84.6,42.1,84.8,42.3,85,42.3"/>
</g>
</svg>
